<?xml version="1.0" encoding="UTF-8" ?>
<!DOCTYPE svg PUBLIC "-//W3C//DTD SVG 1.1//EN" "http://www.w3.org/Graphics/SVG/1.1/DTD/svg11.dtd">
<svg width="127pt" height="41pt" viewBox="0 0 127 41" version="1.1" xmlns="http://www.w3.org/2000/svg">
<g id="#cf1717ff">
<path fill="#cf1717" opacity="1.00" d=" M 86.00 9.00 C 96.00 9.00 106.00 9.00 116.00 9.00 C 116.00 15.67 116.00 22.33 116.00 29.00 C 108.74 29.01 101.48 28.97 94.22 29.07 C 92.09 31.05 89.77 32.83 87.61 34.79 C 87.21 34.86 86.40 35.00 86.00 35.07 C 86.00 26.38 86.00 17.69 86.00 9.00 M 96.00 12.00 C 96.00 15.00 96.00 18.00 96.00 21.00 C 95.25 21.00 93.75 21.00 93.00 21.00 C 93.00 20.25 93.00 18.75 93.00 17.99 C 91.66 18.01 90.31 18.03 88.97 18.05 C 89.00 19.61 89.04 21.16 89.07 22.72 C 89.82 23.46 90.56 24.21 91.30 24.96 C 93.43 24.97 95.56 24.96 97.69 24.96 C 98.44 24.21 99.19 23.47 99.95 22.72 C 99.99 19.15 100.00 15.57 100.02 12.00 C 98.68 12.00 97.34 12.00 96.00 12.00 M 103.40 12.28 C 102.21 13.72 102.03 15.69 101.45 17.41 C 102.46 18.25 103.46 19.10 104.46 19.94 C 105.60 19.97 106.74 19.99 107.88 20.01 L 108.02 21.00 C 106.01 21.00 104.00 21.00 102.00 21.00 C 102.00 22.34 102.00 23.67 102.00 25.00 C 104.67 25.00 107.33 25.00 110.00 25.00 L 110.00 24.00 C 110.50 24.00 111.50 24.00 112.00 24.00 C 112.00 21.67 112.00 19.34 112.00 17.00 C 111.25 17.00 109.75 17.00 109.00 17.00 L 109.00 16.00 C 108.25 16.00 106.75 16.00 106.00 16.01 L 106.00 14.99 C 108.00 15.00 110.00 15.00 112.00 15.01 C 112.00 14.23 112.00 12.69 112.00 11.91 C 109.13 11.96 106.24 11.84 103.40 12.28 Z" />
</g>
<g id="#000000ff">
<path fill="#000000" opacity="1.00" d=" M 10.01 11.82 C 13.25 12.22 17.27 11.05 19.90 13.42 C 20.31 15.63 20.51 18.12 19.35 20.15 C 17.66 20.79 15.89 21.17 14.14 21.61 C 14.08 22.70 14.02 23.79 13.96 24.88 C 12.64 24.93 11.32 24.98 10.00 25.03 C 10.00 20.63 9.99 16.22 10.01 11.82 M 14.17 15.33 C 12.67 16.33 14.37 18.83 15.82 17.67 C 17.33 16.67 15.62 14.17 14.17 15.33 Z" />
<path fill="#000000" opacity="1.00" d=" M 22.00 12.00 C 25.33 12.00 28.66 12.00 31.99 12.00 C 32.00 12.75 32.01 14.25 32.02 15.00 C 29.98 15.00 27.95 15.00 25.92 15.00 C 26.17 15.44 26.68 16.33 26.94 16.78 C 28.57 17.06 30.20 17.36 31.83 17.66 C 29.86 18.84 27.86 19.97 25.85 21.07 C 27.91 21.04 29.97 21.01 32.04 20.99 C 32.02 22.33 32.00 23.66 31.99 25.00 C 28.66 25.00 25.33 25.00 22.00 25.00 C 22.00 20.66 22.00 16.33 22.00 12.00 Z" />
<path fill="#000000" opacity="1.00" d=" M 34.00 12.00 C 37.33 12.00 40.66 12.00 43.99 12.00 C 44.00 12.75 44.01 14.25 44.02 14.99 C 41.98 15.00 39.95 15.00 37.91 15.00 C 38.17 15.44 38.68 16.33 38.94 16.78 C 40.57 17.06 42.20 17.36 43.83 17.66 C 41.86 18.84 39.86 19.97 37.85 21.07 C 39.91 21.04 41.98 21.01 44.04 20.99 C 44.02 22.33 44.00 23.66 43.99 25.00 C 40.66 25.00 37.33 25.00 34.00 25.00 C 34.00 20.66 34.00 16.33 34.00 12.00 Z" />
<path fill="#000000" opacity="1.00" d=" M 46.00 11.99 C 49.26 12.00 52.51 12.01 55.77 12.03 C 56.23 13.06 56.69 14.10 57.15 15.13 C 56.77 15.62 56.02 16.60 55.64 17.09 C 56.41 17.80 57.18 18.51 57.95 19.23 C 57.97 21.12 57.99 23.02 58.01 24.92 C 56.65 24.99 55.29 25.06 53.93 25.13 C 53.53 23.79 53.14 22.45 52.74 21.10 C 52.07 21.07 50.71 21.00 50.04 20.97 C 50.02 22.31 50.00 23.66 49.99 25.01 C 48.66 25.00 47.33 25.00 46.00 25.00 C 46.00 20.66 46.00 16.33 46.00 11.99 M 50.17 15.17 L 49.83 16.00 L 50.17 16.83 L 51.00 17.18 L 51.83 16.83 L 52.18 16.00 L 51.83 15.17 L 51.00 14.83 L 50.17 15.17 Z" />
<path fill="#000000" opacity="1.00" d=" M 62.15 11.96 C 64.31 12.00 66.48 12.05 68.64 12.10 C 70.88 16.05 70.90 20.54 71.18 24.95 C 69.77 24.97 68.37 25.00 66.97 25.02 C 66.97 24.26 66.97 22.73 66.98 21.97 C 66.29 22.00 64.92 22.04 64.23 22.07 C 63.82 23.07 63.41 24.07 62.99 25.07 C 61.60 25.02 60.22 24.98 58.83 24.93 C 59.02 22.43 59.22 19.93 59.45 17.43 C 60.06 15.47 61.16 13.74 62.15 11.96 M 64.16 16.17 L 63.82 17.01 L 64.17 17.84 L 65.00 18.18 L 65.83 17.83 L 66.17 17.00 L 65.83 16.17 L 64.99 15.83 L 64.16 16.17 Z" />
<path fill="#000000" opacity="1.00" d=" M 73.70 12.61 C 76.40 11.95 79.19 11.90 81.94 11.69 C 81.98 12.53 82.05 14.19 82.09 15.02 C 80.29 15.01 78.49 15.01 76.70 15.01 C 78.64 16.68 81.06 17.37 83.47 18.07 C 83.14 20.20 82.90 22.34 82.31 24.42 C 79.28 25.16 76.13 25.07 73.03 25.20 C 72.99 23.82 72.96 22.44 72.92 21.06 C 74.74 20.99 76.57 20.93 78.40 20.86 C 76.44 20.18 74.47 19.52 72.51 18.84 C 72.84 16.76 73.10 14.65 73.70 12.61 Z" />
</g>
</svg>
